<svg width="28" height="28" viewBox="0 0 28 28" fill="none" xmlns="http://www.w3.org/2000/svg">
<path d="M7.55787 9.30148C7.90391 6.00387 10.6843 3.5 14 3.5V3.5C17.3157 3.5 20.0961 6.00387 20.4421 9.30148L20.7807 12.528C20.8258 12.9572 20.8483 13.1718 20.8819 13.3829C21.0098 14.1854 21.2591 14.9637 21.6214 15.6911C21.7167 15.8824 21.8231 16.0702 22.0359 16.4456L22.8079 17.8081C23.5608 19.1367 23.9373 19.8011 23.6479 20.2976C23.3586 20.7941 22.595 20.7941 21.0679 20.7941H6.93213C5.40497 20.7941 4.64139 20.7941 4.35206 20.2976C4.06272 19.8011 4.43918 19.1367 5.19208 17.8081L5.96414 16.4456C6.17691 16.0702 6.28329 15.8824 6.3786 15.6911C6.74089 14.9637 6.99024 14.1854 7.11809 13.3829C7.15172 13.1718 7.17424 12.9572 7.21928 12.528L7.55787 9.30148Z" stroke="#003459" stroke-width="1.5"/>
<path d="M9.77407 20.9331C10.0233 21.9564 10.5726 22.8606 11.3367 23.5055C12.1007 24.1504 13.0369 24.5 14 24.5C14.9631 24.5 15.8993 24.1504 16.6633 23.5055C17.4274 22.8606 17.9767 21.9564 18.2259 20.9331" stroke="#003459" stroke-width="1.5" stroke-linecap="round"/>
<g clip-path="url(#clip0_1032_1085)">
<rect x="14" width="14" height="14" rx="7" fill="#FF564F"/>
<path d="M16.1914 6.05078C16.1914 4.96094 17.0273 4.21875 18.2461 4.21875C19.4219 4.21875 20.2422 4.89453 20.2422 5.86328C20.2422 6.47656 19.9102 7.00391 18.9336 7.92188L17.8555 8.94922V9.01953H20.3242V10H16.2578V9.17578L18.0977 7.375C18.8906 6.60156 19.0898 6.30859 19.0898 5.94141C19.0898 5.48828 18.7227 5.16797 18.207 5.16797C17.6602 5.16797 17.2852 5.52734 17.2852 6.04688V6.07031H16.1914V6.05078ZM23.5742 10.1445C22.1797 10.1445 21.3359 9.04297 21.3359 7.17188C21.3359 5.30469 22.1875 4.21875 23.5742 4.21875C24.957 4.21875 25.8125 5.30469 25.8125 7.17578C25.8125 9.03906 24.9688 10.1445 23.5742 10.1445ZM23.5742 9.18359C24.2227 9.18359 24.6172 8.49219 24.6172 7.17188C24.6172 5.85938 24.2188 5.18359 23.5742 5.18359C22.9336 5.18359 22.5312 5.86328 22.5312 7.17188C22.5312 8.48828 22.9297 9.18359 23.5742 9.18359Z" fill="white"/>
</g>
<defs>
<clipPath id="clip0_1032_1085">
<rect x="14" width="14" height="14" rx="7" fill="white"/>
</clipPath>
</defs>
</svg>
