<svg width="32" height="32" viewBox="0 0 32 32" fill="none" xmlns="http://www.w3.org/2000/svg">
<mask id="path-1-inside-1_62_81" fill="white">
<path fill-rule="evenodd" clip-rule="evenodd" d="M21.1828 28H23.6132C26.0359 28 28 26.1528 28 23.8742V13.4054C27.9871 12.509 27.5395 11.6672 26.7848 11.1196L18.4729 4.82236C17.0168 3.72588 14.9468 3.72588 13.4906 4.82236L5.21519 11.1311C4.45759 11.6764 4.00933 12.5196 4 13.4168V23.8742C4 26.1528 5.96405 28 8.38684 28H10.8172H21.1828ZM16.9165 12.2955C16.9165 11.7432 16.4688 11.2955 15.9165 11.2955C15.3642 11.2955 14.9165 11.7432 14.9165 12.2955V15H12C11.4477 15 11 15.4477 11 16C11 16.5523 11.4477 17 12 17H14.9165V22.9809C14.9165 23.5332 15.3643 23.9809 15.9165 23.9809C16.4688 23.9809 16.9165 23.5332 16.9165 22.9809V17H19.6456C20.1979 17 20.6456 16.5523 20.6456 16C20.6456 15.4477 20.1979 15 19.6456 15H16.9165V12.2955Z"/>
</mask>
<path fill-rule="evenodd" clip-rule="evenodd" d="M21.1828 28H23.6132C26.0359 28 28 26.1528 28 23.8742V13.4054C27.9871 12.509 27.5395 11.6672 26.7848 11.1196L18.4729 4.82236C17.0168 3.72588 14.9468 3.72588 13.4906 4.82236L5.21519 11.1311C4.45759 11.6764 4.00933 12.5196 4 13.4168V23.8742C4 26.1528 5.96405 28 8.38684 28H10.8172H21.1828ZM16.9165 12.2955C16.9165 11.7432 16.4688 11.2955 15.9165 11.2955C15.3642 11.2955 14.9165 11.7432 14.9165 12.2955V15H12C11.4477 15 11 15.4477 11 16C11 16.5523 11.4477 17 12 17H14.9165V22.9809C14.9165 23.5332 15.3643 23.9809 15.9165 23.9809C16.4688 23.9809 16.9165 23.5332 16.9165 22.9809V17H19.6456C20.1979 17 20.6456 16.5523 20.6456 16C20.6456 15.4477 20.1979 15 19.6456 15H16.9165V12.2955Z" fill="#3A0CA3"/>
<path d="M23.6132 28L23.6132 26H23.6132V28ZM28 13.4054H30C30 13.3958 29.9999 13.3862 29.9998 13.3765L28 13.4054ZM26.7848 11.1196L25.577 12.7138C25.5881 12.7221 25.5991 12.7303 25.6103 12.7385L26.7848 11.1196ZM18.4729 4.82236L19.6807 3.22821L19.676 3.22466L18.4729 4.82236ZM13.4906 4.82236L12.2875 3.22464L12.2781 3.23183L13.4906 4.82236ZM5.21519 11.1311L6.38364 12.7543C6.39848 12.7436 6.41317 12.7327 6.42771 12.7216L5.21519 11.1311ZM4 13.4168L2.00011 13.396C2.00004 13.403 2 13.4099 2 13.4168H4ZM14.9165 15V17C16.0211 17 16.9165 16.1046 16.9165 15H14.9165ZM14.9165 17H16.9165C16.9165 15.8954 16.0211 15 14.9165 15V17ZM14.9165 22.9809H12.9165V22.9809L14.9165 22.9809ZM16.9165 22.9809H14.9165V22.9809L16.9165 22.9809ZM16.9165 17V15C15.812 15 14.9165 15.8954 14.9165 17H16.9165ZM16.9165 15H14.9165C14.9165 16.1046 15.812 17 16.9165 17V15ZM23.6132 26H21.1828V30H23.6132V26ZM26 23.8742C26 24.9344 25.0487 26 23.6132 26L23.6132 30C27.0232 30 30 27.3712 30 23.8742H26ZM26 13.4054V23.8742H30V13.4054H26ZM25.6103 12.7385C25.8787 12.9332 25.9968 13.1974 26.0002 13.4343L29.9998 13.3765C29.9773 11.8206 29.2004 10.4013 27.9593 9.50082L25.6103 12.7385ZM17.2651 6.41651L25.577 12.7138L27.9926 9.52549L19.6807 3.22821L17.2651 6.41651ZM14.6937 6.42006C15.4375 5.85998 16.5261 5.85998 17.2698 6.42006L19.676 3.22466C17.5075 1.59178 14.4561 1.59178 12.2876 3.22466L14.6937 6.42006ZM6.42771 12.7216L14.7032 6.41289L12.2781 3.23183L4.00266 9.54054L6.42771 12.7216ZM5.99989 13.4376C6.0023 13.2059 6.11771 12.9457 6.38364 12.7543L4.04674 9.50788C2.79747 10.4072 2.01636 11.8333 2.00011 13.396L5.99989 13.4376ZM6 23.8742V13.4168H2V23.8742H6ZM8.38684 26C6.95126 26 6 24.9344 6 23.8742H2C2 27.3712 4.97684 30 8.38684 30V26ZM10.8172 26H8.38684V30H10.8172V26ZM21.1828 26H10.8172V30H21.1828V26ZM15.9165 13.2955C15.3642 13.2955 14.9165 12.8478 14.9165 12.2955H18.9165C18.9165 10.6387 17.5734 9.29553 15.9165 9.29553V13.2955ZM16.9165 12.2955C16.9165 12.8478 16.4688 13.2955 15.9165 13.2955V9.29553C14.2597 9.29553 12.9165 10.6387 12.9165 12.2955H16.9165ZM16.9165 15V12.2955H12.9165V15H16.9165ZM12 17H14.9165V13H12V17ZM13 16C13 16.5523 12.5523 17 12 17V13C10.3431 13 9 14.3431 9 16H13ZM12 15C12.5523 15 13 15.4477 13 16H9C9 17.6568 10.3431 19 12 19V15ZM14.9165 15H12V19H14.9165V15ZM16.9165 22.9809V17H12.9165V22.9809H16.9165ZM15.9165 21.9809C16.4688 21.9809 16.9165 22.4286 16.9165 22.9809L12.9165 22.9809C12.9165 24.6378 14.2597 25.9809 15.9165 25.9809V21.9809ZM14.9165 22.9809C14.9165 22.4286 15.3643 21.9809 15.9165 21.9809V25.9809C17.5734 25.9809 18.9165 24.6378 18.9165 22.9809L14.9165 22.9809ZM14.9165 17V22.9809H18.9165V17H14.9165ZM19.6456 15H16.9165V19H19.6456V15ZM18.6456 16C18.6456 15.4477 19.0933 15 19.6456 15V19C21.3024 19 22.6456 17.6568 22.6456 16H18.6456ZM19.6456 17C19.0933 17 18.6456 16.5523 18.6456 16H22.6456C22.6456 14.3431 21.3024 13 19.6456 13V17ZM16.9165 17H19.6456V13H16.9165V17ZM14.9165 12.2955V15H18.9165V12.2955H14.9165Z" fill="#3A0CA3" mask="url(#path-1-inside-1_62_81)"/>
</svg>
