<svg width="32" height="32" viewBox="0 0 32 32" fill="none" xmlns="http://www.w3.org/2000/svg">
<path d="M5.65336 11.7398L5.66989 11.7275L13.9418 5.4215C13.9423 5.42107 13.9429 5.42065 13.9435 5.42022C15.1321 4.52637 16.8325 4.52659 18.0209 5.42088C18.0212 5.42108 18.0215 5.42129 18.0218 5.4215L26.3319 11.7174L26.3444 11.7267C26.9153 12.1409 27.239 12.7639 27.25 13.4112V23.8742C27.25 25.6959 25.6657 27.25 23.6132 27.25H21.1828H10.8172H8.38684C6.33426 27.25 4.75 25.6959 4.75 23.8742V13.421C4.75789 12.7747 5.08119 12.1516 5.65336 11.7398Z" stroke="#99A2A5" stroke-width="1.5" stroke-linecap="round" stroke-linejoin="round"/>
<path d="M15.9165 12.2955L15.9165 22.9809" stroke="#99A2A5" stroke-width="1.5" stroke-linecap="round"/>
<path d="M19.6456 16H12" stroke="#99A2A5" stroke-width="1.5" stroke-linecap="round"/>
</svg>
