<svg width="32" height="32" viewBox="0 0 32 32" fill="none" xmlns="http://www.w3.org/2000/svg">
<path d="M13.2024 8.22613C14.3879 5.40871 14.9807 4 16 4C17.0193 4 17.6121 5.40871 18.7976 8.22613L18.8528 8.35733C19.5226 9.94903 19.8575 10.7449 20.54 11.2286C21.2225 11.7123 22.1184 11.7888 23.9103 11.9418L24.2342 11.9695C27.1668 12.2198 28.6332 12.345 28.9469 13.2343C29.2607 14.1236 28.1717 15.0681 25.9938 16.9569L25.267 17.5873C24.1645 18.5435 23.6132 19.0216 23.3563 19.6482C23.3084 19.765 23.2685 19.8848 23.237 20.0066C23.0682 20.6599 23.2296 21.3534 23.5524 22.7405L23.6529 23.1723C24.2462 25.7215 24.5429 26.9962 24.0249 27.5459C23.8314 27.7514 23.5798 27.8993 23.3004 27.972C22.5525 28.1665 21.4908 27.3418 19.3673 25.6923C17.9729 24.6091 17.2757 24.0676 16.4753 23.9457C16.1604 23.8978 15.8396 23.8978 15.5247 23.9457C14.7243 24.0676 14.0271 24.6091 12.6327 25.6923C10.5092 27.3418 9.44749 28.1665 8.69964 27.972C8.42019 27.8993 8.16863 27.7514 7.97508 27.5459C7.4571 26.9962 7.75377 25.7215 8.34709 23.1723L8.44758 22.7405C8.77042 21.3534 8.93185 20.6599 8.76296 20.0066C8.73146 19.8848 8.69162 19.765 8.64369 19.6482C8.38676 19.0216 7.83552 18.5435 6.73303 17.5873L6.00616 16.9569C3.82827 15.0681 2.73933 14.1236 3.05308 13.2343C3.36684 12.345 4.83315 12.2198 7.76577 11.9695L8.08971 11.9418C9.88158 11.7888 10.7775 11.7123 11.46 11.2286C12.1425 10.7449 12.4774 9.94903 13.1472 8.35732L13.2024 8.22613Z" stroke="#A6A6A6" stroke-width="1.5"/>
</svg>
