<svg width="32" height="32" viewBox="0 0 32 32" fill="none" xmlns="http://www.w3.org/2000/svg">
<path fill-rule="evenodd" clip-rule="evenodd" d="M3.69444 6.69536C3.69442 6.04649 3.69441 5.46499 3.71696 4.95231C3.69441 5.46501 3.69443 6.04655 3.69445 6.69547L3.69445 25.8868L3.69444 25.9702V6.69545V6.6954V6.69536ZM5.42778 6.75555C5.42778 5.64159 5.42962 4.8933 5.50467 4.33512C5.57636 3.80188 5.70026 3.57366 5.85085 3.42307C6.00144 3.27248 6.22966 3.14858 6.7629 3.07689C7.32108 3.00184 8.06937 3 9.18334 3H23.05C24.164 3 24.9123 3.00184 25.4704 3.07689C26.0037 3.14858 26.2319 3.27248 26.3825 3.42307C26.5331 3.57366 26.657 3.80188 26.7287 4.33512C26.8037 4.8933 26.8056 5.64159 26.8056 6.75556V17.5407C26.8056 18.6547 26.8037 19.403 26.7287 19.9612C26.657 20.4944 26.5331 20.7226 26.3825 20.8732C26.2319 21.0238 26.0037 21.1477 25.4704 21.2194C24.9123 21.2945 24.164 21.2963 23.05 21.2963L8.36842 21.2963H8.36826H8.36822C8.05353 21.2963 7.83925 21.2962 7.65011 21.3128C6.8194 21.3855 6.05694 21.6905 5.42778 22.1628V6.75555ZM26.8056 22.6464C26.4642 22.7979 26.093 22.8846 25.7014 22.9373C25.0141 23.0297 24.1484 23.0297 23.1102 23.0296H23.1101H8.41297C8.03695 23.0296 7.90476 23.0305 7.80118 23.0395C6.54421 23.1495 5.54765 24.1461 5.43768 25.403C5.42861 25.5066 5.42778 25.6388 5.42778 26.0148C5.42778 26.3908 5.42861 26.523 5.43768 26.6266C5.54765 27.8836 6.54421 28.8801 7.80118 28.9901C7.90476 28.9992 8.03695 29 8.41297 29H23.05C24.164 29 24.9123 28.9982 25.4704 28.9231C26.0037 28.8514 26.2319 28.7275 26.3825 28.5769C26.5331 28.4263 26.657 28.1981 26.7287 27.6649C26.8037 27.1067 26.8056 26.3584 26.8056 25.2444V22.6464ZM15.8904 7.2995C16.3046 7.2995 16.6404 7.63529 16.6404 8.0495V10.4147H18.7655C19.1797 10.4147 19.5155 10.7505 19.5155 11.1647C19.5155 11.5789 19.1797 11.9147 18.7655 11.9147H16.6404V17.0353C16.6404 17.4495 16.3046 17.7853 15.8904 17.7853C15.4762 17.7853 15.1404 17.4495 15.1404 17.0353V11.9147H12.8707C12.4565 11.9147 12.1207 11.5789 12.1207 11.1647C12.1207 10.7505 12.4565 10.4147 12.8707 10.4147H15.1404V8.0495C15.1404 7.63529 15.4762 7.2995 15.8904 7.2995Z" fill="#3A0CA3"/>
</svg>
