<svg width="32" height="32" viewBox="0 0 32 32" fill="none" xmlns="http://www.w3.org/2000/svg">
<path d="M26 16V24C26 25.8856 26 26.8284 25.4142 27.4142C24.8284 28 23.8856 28 22 28H9.33333C9.02379 28 8.86902 28 8.73853 27.9886C7.28819 27.8617 6.1383 26.7118 6.01142 25.2615C6 25.131 6 24.9762 6 24.6667V24.6667C6 24.3571 6 24.2024 6.01142 24.0719C6.1383 22.6215 7.28819 21.4716 8.73853 21.3447C8.86902 21.3333 9.02379 21.3333 9.33333 21.3333H22C23.8856 21.3333 24.8284 21.3333 25.4142 20.7475C26 20.1618 26 19.219 26 17.3333V8C26 6.11438 26 5.17157 25.4142 4.58579C24.8284 4 23.8856 4 22 4H10C8.11438 4 7.17157 4 6.58579 4.58579C6 5.17157 6 6.11438 6 8V24.6667" stroke="#A6A6A6" stroke-width="1.5"/>
<path fill-rule="evenodd" clip-rule="evenodd" d="M16.5196 7.75C16.5196 7.33579 16.1839 7 15.7696 7C15.3554 7 15.0196 7.33579 15.0196 7.75L15.0196 10.1152H12.75C12.3358 10.1152 12 10.451 12 10.8652C12 11.2794 12.3358 11.6152 12.75 11.6152H15.0196L15.0196 16.7358C15.0196 17.15 15.3554 17.4858 15.7696 17.4858C16.1839 17.4858 16.5196 17.15 16.5196 16.7358L16.5196 11.6152H18.6447C19.059 11.6152 19.3947 11.2794 19.3947 10.8652C19.3947 10.451 19.059 10.1152 18.6447 10.1152H16.5196V7.75Z" fill="#A6A6A6"/>
</svg>
