<svg width="32" height="32" viewBox="0 0 32 32" fill="none" xmlns="http://www.w3.org/2000/svg">
<path fill-rule="evenodd" clip-rule="evenodd" d="M1 5C1 4.44772 1.44772 4 2 4H30C30.5523 4 31 4.44772 31 5V28C31 28.5523 30.5523 29 30 29H15.7943C16.9476 28.6113 17.832 27.638 18.0952 26.4325H28.0204C28.4346 26.4325 28.7704 26.0967 28.7704 25.6825V7C28.7704 6.58579 28.4346 6.25 28.0204 6.25H4C3.58579 6.25 3.25 6.58579 3.25 7V11.5874C2.29669 11.7955 1.48861 12.3921 1 13.203V5ZM4.75 11.5263C11.982 11.9033 17.7792 17.7005 18.1562 24.9325H27.2704V7.75H4.75V11.5263Z" fill="#3A0CA3"/>
<path d="M4 20.3447C6.94802 20.3447 9.33787 22.7345 9.33787 25.6825M4 15.0068C9.89605 15.0068 14.6757 19.7865 14.6757 25.6825M4 25.6692V25.6825" stroke="#3A0CA3" stroke-width="2" stroke-linecap="round" stroke-linejoin="round"/>
</svg>
