<svg width="11" height="19" viewBox="0 0 11 19" fill="none" xmlns="http://www.w3.org/2000/svg">
<path d="M0.541298 9.60491C0.541298 9.95647 0.671878 10.2578 0.953128 10.519L8.76786 18.173C8.98884 18.394 9.27009 18.5145 9.60157 18.5145C10.2645 18.5145 10.7969 17.9922 10.7969 17.3192C10.7969 16.9877 10.6563 16.6964 10.4353 16.4654L3.39398 9.60491L10.4353 2.74442C10.6563 2.51339 10.7969 2.21205 10.7969 1.89063C10.7969 1.21763 10.2645 0.695312 9.60157 0.695312C9.27009 0.695312 8.98884 0.815848 8.76786 1.03683L0.953128 8.6808C0.671878 8.95201 0.541298 9.25335 0.541298 9.60491Z" fill="#012A48"/>
</svg>
