<svg width="297" height="297" viewBox="0 0 297 297" fill="none" xmlns="http://www.w3.org/2000/svg">
<path d="M0 9.875C0 7.25599 1.0404 4.74424 2.89232 2.89232C4.74424 1.0404 7.25599 0 9.875 0H39.5C41.7027 0.000608527 43.842 0.737676 45.5777 2.09399C47.3133 3.4503 48.5457 5.34798 49.0787 7.48525L57.0775 39.5H286.375C287.825 39.5013 289.257 39.822 290.569 40.4391C291.881 41.0563 293.041 41.9548 293.967 43.0709C294.892 44.1869 295.561 45.4932 295.925 46.8967C296.289 48.3003 296.339 49.7668 296.072 51.192L266.447 209.192C266.024 211.455 264.823 213.499 263.052 214.97C261.281 216.441 259.052 217.248 256.75 217.25H79C76.6978 217.248 74.4687 216.441 72.698 214.97C70.9273 213.499 69.7264 211.455 69.3028 209.192L39.6975 51.4883L31.7975 19.75H9.875C7.25599 19.75 4.74424 18.7096 2.89232 16.8577C1.0404 15.0058 0 12.494 0 9.875ZM61.2645 59.25L87.1962 197.5H248.554L274.485 59.25H61.2645ZM98.75 217.25C88.2739 217.25 78.227 221.412 70.8193 228.819C63.4116 236.227 59.25 246.274 59.25 256.75C59.25 267.226 63.4116 277.273 70.8193 284.681C78.227 292.088 88.2739 296.25 98.75 296.25C109.226 296.25 119.273 292.088 126.681 284.681C134.088 277.273 138.25 267.226 138.25 256.75C138.25 246.274 134.088 236.227 126.681 228.819C119.273 221.412 109.226 217.25 98.75 217.25ZM237 217.25C226.524 217.25 216.477 221.412 209.069 228.819C201.662 236.227 197.5 246.274 197.5 256.75C197.5 267.226 201.662 277.273 209.069 284.681C216.477 292.088 226.524 296.25 237 296.25C247.476 296.25 257.523 292.088 264.931 284.681C272.338 277.273 276.5 267.226 276.5 256.75C276.5 246.274 272.338 236.227 264.931 228.819C257.523 221.412 247.476 217.25 237 217.25ZM98.75 237C103.988 237 109.012 239.081 112.715 242.785C116.419 246.488 118.5 251.512 118.5 256.75C118.5 261.988 116.419 267.012 112.715 270.715C109.012 274.419 103.988 276.5 98.75 276.5C93.512 276.5 88.4885 274.419 84.7846 270.715C81.0808 267.012 79 261.988 79 256.75C79 251.512 81.0808 246.488 84.7846 242.785C88.4885 239.081 93.512 237 98.75 237ZM237 237C242.238 237 247.262 239.081 250.965 242.785C254.669 246.488 256.75 251.512 256.75 256.75C256.75 261.988 254.669 267.012 250.965 270.715C247.262 274.419 242.238 276.5 237 276.5C231.762 276.5 226.738 274.419 223.035 270.715C219.331 267.012 217.25 261.988 217.25 256.75C217.25 251.512 219.331 246.488 223.035 242.785C226.738 239.081 231.762 237 237 237Z" fill="white"/>
</svg>
