<svg width="32" height="32" viewBox="0 0 32 32" fill="none" xmlns="http://www.w3.org/2000/svg">
<path d="M8.63756 10.6303C9.03305 6.86157 12.2106 4 16 4V4C19.7894 4 22.967 6.86157 23.3624 10.6303L23.7494 14.3178C23.8256 15.0442 23.8637 15.4074 23.9339 15.7625C24.0529 16.3653 24.241 16.9523 24.4944 17.5121C24.6437 17.8418 24.8237 18.1595 25.1838 18.795L26.3079 20.7787C27.0608 22.1073 27.4373 22.7717 27.1479 23.2682C26.8586 23.7647 26.095 23.7647 24.5679 23.7647H7.43213C5.90497 23.7647 5.14139 23.7647 4.85206 23.2682C4.56272 22.7717 4.93918 22.1073 5.69208 20.7787L6.81616 18.795C7.17627 18.1595 7.35633 17.8418 7.5056 17.5121C7.75901 16.9523 7.9471 16.3653 8.06614 15.7625C8.13626 15.4074 8.17437 15.0442 8.25061 14.3178L8.63756 10.6303Z" stroke="#FDFDFD" stroke-width="1.5"/>
<path d="M11.1704 23.9235C11.4552 25.093 12.083 26.1264 12.9562 26.8634C13.8294 27.6005 14.8993 28 16 28C17.1007 28 18.1706 27.6005 19.0438 26.8634C19.917 26.1264 20.5448 25.093 20.8296 23.9235" stroke="#FDFDFD" stroke-width="1.5" stroke-linecap="round"/>
</svg>
