<svg width="20" height="20" viewBox="0 0 20 20" fill="none" xmlns="http://www.w3.org/2000/svg">
<g clip-path="url(#clip0_1381_1113)">
<g clip-path="url(#clip1_1381_1113)">
<path d="M13.3333 1.66669C13.5374 1.66671 13.7344 1.74165 13.887 1.87728C14.0395 2.01292 14.137 2.19981 14.1608 2.40252L14.1667 2.50002V3.33335H15C15.6377 3.33332 16.2513 3.57696 16.7152 4.01442C17.1792 4.45189 17.4584 5.05011 17.4958 5.68669L17.5 5.83335V15.8334C17.5 16.471 17.2564 17.0846 16.8189 17.5486C16.3815 18.0125 15.7832 18.2918 15.1467 18.3292L15 18.3334H5C4.36232 18.3334 3.74874 18.0897 3.28478 17.6523C2.82083 17.2148 2.54158 16.6166 2.50417 15.98L2.5 15.8334V5.83335C2.49996 5.19568 2.7436 4.58209 3.18107 4.11814C3.61854 3.65418 4.21676 3.37493 4.85333 3.33752L5 3.33335H5.83333V2.50002C5.83357 2.28762 5.9149 2.08333 6.06071 1.92888C6.20651 1.77443 6.40579 1.68149 6.61783 1.66904C6.82986 1.6566 7.03865 1.72558 7.20153 1.86191C7.3644 1.99823 7.46908 2.19161 7.49417 2.40252L7.5 2.50002V3.33335H12.5V2.50002C12.5 2.27901 12.5878 2.06704 12.7441 1.91076C12.9004 1.75448 13.1123 1.66669 13.3333 1.66669ZM15.8333 7.50002H4.16667V15.5209C4.16667 16.1084 4.48833 16.5925 4.9025 16.6592L5 16.6667H15C15.4275 16.6667 15.78 16.225 15.8275 15.6542L15.8333 15.5209V7.50002Z" fill="#9098B1"/>
<path d="M9.99997 10C10.2041 10 10.4011 10.075 10.5536 10.2106C10.7061 10.3462 10.8036 10.5331 10.8275 10.7358L10.8333 10.8333V13.3333C10.8331 13.5457 10.7517 13.75 10.6059 13.9045C10.4601 14.0589 10.2608 14.1519 10.0488 14.1643C9.83677 14.1768 9.62799 14.1078 9.46511 13.9714C9.30223 13.8351 9.19756 13.6417 9.17247 13.4308L9.16664 13.3333V11.6667C8.95424 11.6664 8.74995 11.5851 8.5955 11.4393C8.44105 11.2935 8.34811 11.0942 8.33566 10.8822C8.32321 10.6701 8.3922 10.4614 8.52853 10.2985C8.66485 10.1356 8.85823 10.0309 9.06914 10.0058L9.16664 10H9.99997Z" fill="#9098B1"/>
</g>
</g>
<defs>
<clipPath id="clip0_1381_1113">
<rect width="20" height="20" fill="white"/>
</clipPath>
<clipPath id="clip1_1381_1113">
<rect width="20" height="20" fill="white"/>
</clipPath>
</defs>
</svg>
