<svg width="20" height="20" viewBox="0 0 20 20" fill="none" xmlns="http://www.w3.org/2000/svg">
<g clip-path="url(#clip0_1381_1104)">
<path d="M13.8417 11.8131C13.8417 12.514 14.0408 12.7935 14.5617 12.7935C15.7225 12.7935 16.4617 11.3125 16.4617 8.84939C16.4617 5.08469 13.7217 3.28244 10.3008 3.28244C6.78167 3.28244 3.58083 5.64539 3.58083 10.111C3.58083 14.3763 6.38083 16.6992 10.6808 16.6992C12.1408 16.6992 13.1208 16.539 14.62 16.0384L14.9417 17.3792C13.4617 17.8607 11.88 18 10.6608 18C5.02083 18 2 14.8961 2 10.1101C2 5.2841 5.50083 2 10.3208 2C15.3408 2 18 5.00375 18 8.68836C18 11.8123 17.0208 14.1952 13.9408 14.1952C12.54 14.1952 11.6208 13.6345 11.5008 12.3922C11.1408 13.7739 10.1808 14.1952 8.88 14.1952C7.14 14.1952 5.68 12.8527 5.68 10.1502C5.68 7.42678 6.96083 5.74468 9.26083 5.74468C10.4808 5.74468 11.2408 6.22528 11.5792 6.98623L12.16 5.92491H13.84V11.8131H13.8417ZM11.3825 9.16979C11.3825 8.06925 10.5617 7.60784 9.88167 7.60784C9.14167 7.60784 8.3225 8.20776 8.3225 9.9708C8.3225 11.3725 8.9425 12.1535 9.88167 12.1535C10.5417 12.1535 11.3825 11.733 11.3825 10.5715V9.16979Z" fill="#9098B1"/>
</g>
<defs>
<clipPath id="clip0_1381_1104">
<rect width="20" height="20" fill="white"/>
</clipPath>
</defs>
</svg>
