<svg width="20" height="20" viewBox="0 0 20 20" fill="none" xmlns="http://www.w3.org/2000/svg">
<g clip-path="url(#clip0_1381_1116)">
<path d="M13.75 1.875V3.125H15.9769L13.8675 5.25375C13.1136 4.68444 12.1948 4.37599 11.25 4.375C10.0813 4.375 8.99005 4.8375 8.1638 5.66438C7.75539 6.06786 7.43114 6.54842 7.20985 7.07817C6.98857 7.60792 6.87465 8.17633 6.87471 8.75044C6.87477 9.32456 6.9888 9.89294 7.21019 10.4227C7.43158 10.9524 7.75593 11.4328 8.16442 11.8363C8.70817 12.38 9.35567 12.7706 10.0782 12.9688C10.1494 12.9144 10.2294 12.8575 10.2932 12.7938C10.5551 12.5273 10.7434 12.1974 10.8394 11.8363C10.159 11.7523 9.52635 11.4426 9.04255 10.9569C8.45255 10.3675 8.12505 9.585 8.12505 8.75C8.12505 7.915 8.45317 7.13375 9.0438 6.54375C9.63255 5.95188 10.415 5.625 11.25 5.625C12.085 5.625 12.8669 5.95313 13.4563 6.54375C13.7479 6.83233 13.9793 7.17596 14.137 7.5547C14.2947 7.93344 14.3756 8.33974 14.375 8.75C14.375 9.29063 14.2219 9.79375 13.965 10.2538C14.025 10.5763 14.0625 10.915 14.0625 11.25C14.0625 11.5613 14.0363 11.8688 13.9844 12.1688C14.1094 12.0669 14.2207 11.9513 14.3363 11.8363C15.1625 11.0088 15.625 9.91875 15.625 8.75C15.625 7.79375 15.31 6.885 14.7463 6.1325L16.875 4.02375V6.25H18.125V1.875H13.75ZM9.92192 7.03125C9.85067 7.08563 9.77067 7.1425 9.70692 7.20625C9.43692 7.4775 9.26067 7.80625 9.16067 8.16438C9.84192 8.25188 10.4638 8.54938 10.9575 9.04313C11.5482 9.6325 11.8763 10.415 11.8763 11.2494C11.8763 12.0838 11.5482 12.8656 10.9575 13.4556C10.3675 14.0481 9.58505 14.375 8.75005 14.375C7.91505 14.375 7.13317 14.0469 6.5438 13.4563C6.25196 13.1678 6.02042 12.8242 5.86269 12.4455C5.70495 12.0667 5.62417 11.6603 5.62505 11.25C5.62505 10.7094 5.77817 10.2063 6.03505 9.74625C5.9723 9.41783 5.93966 9.08436 5.93755 8.75C5.93755 8.43875 5.9638 8.13125 6.01567 7.83125C5.89067 7.93313 5.78005 8.04875 5.6638 8.16438C4.8388 8.99 4.37505 10.0813 4.37505 11.25C4.37505 12.2063 4.69005 13.115 5.2538 13.8675L4.20005 14.9219L2.95005 13.6719L2.05005 14.5506L3.30005 15.8006L2.05005 17.0506L2.95005 17.9506L4.20005 16.7006L5.45005 17.9506L6.32817 17.0506L5.07817 15.8006L6.13317 14.7469C6.8864 15.3171 7.80535 15.6254 8.75005 15.625C9.9188 15.625 11.01 15.1625 11.8363 14.3356C12.6625 13.51 13.125 12.4188 13.125 11.25C13.125 10.0813 12.6625 8.99125 11.8357 8.16375C11.2919 7.62 10.6444 7.22938 9.92192 7.03125Z" fill="#9098B1"/>
</g>
<defs>
<clipPath id="clip0_1381_1116">
<rect width="20" height="20" fill="white"/>
</clipPath>
</defs>
</svg>
