<svg width="20" height="20" viewBox="0 0 20 20" fill="none" xmlns="http://www.w3.org/2000/svg">
<g clip-path="url(#clip0_1381_1110)">
<path fill-rule="evenodd" clip-rule="evenodd" d="M13.56 8.56002C13.56 9.44407 13.2088 10.2919 12.5837 10.917C11.9585 11.5422 11.1107 11.8934 10.2266 11.8934C9.34259 11.8934 8.49474 11.5422 7.86962 10.917C7.2445 10.2919 6.89331 9.44407 6.89331 8.56002C6.89331 7.67596 7.2445 6.82812 7.86962 6.203C8.49474 5.57787 9.34259 5.22668 10.2266 5.22668C11.1107 5.22668 11.9585 5.57787 12.5837 6.203C13.2088 6.82812 13.56 7.67596 13.56 8.56002ZM11.8933 8.56002C11.8933 9.00205 11.7177 9.42597 11.4052 9.73853C11.0926 10.0511 10.6687 10.2267 10.2266 10.2267C9.78462 10.2267 9.36069 10.0511 9.04813 9.73853C8.73557 9.42597 8.55998 9.00205 8.55998 8.56002C8.55998 8.11799 8.73557 7.69407 9.04813 7.38151C9.36069 7.06895 9.78462 6.89335 10.2266 6.89335C10.6687 6.89335 11.0926 7.06895 11.4052 7.38151C11.7177 7.69407 11.8933 8.11799 11.8933 8.56002Z" fill="#9098B1"/>
<path fill-rule="evenodd" clip-rule="evenodd" d="M4.82834 13.765C3.75404 12.7421 3.00717 11.4237 2.6822 9.97635C2.35722 8.52902 2.46873 7.01783 3.00262 5.63387C3.53651 4.24991 4.4688 3.05536 5.6816 2.20125C6.8944 1.34715 8.33323 0.871869 9.81615 0.835506C11.2991 0.799144 12.7595 1.20334 14.0127 1.99697C15.2659 2.79061 16.2556 3.93804 16.8567 5.29416C17.4578 6.65029 17.6432 8.1542 17.3895 9.61572C17.1359 11.0772 16.4545 12.4307 15.4317 13.505L10.26 18.9367L4.82834 13.765ZM14.225 12.3558L10.2025 16.5808L5.9775 12.5583C5.14198 11.7628 4.56112 10.7373 4.30838 9.61164C4.05564 8.48597 4.14237 7.31063 4.5576 6.23424C4.97283 5.15786 5.69792 4.22877 6.64117 3.56447C7.58442 2.90017 8.70348 2.53048 9.85683 2.50216C11.0102 2.47385 12.146 2.78817 13.1208 3.40538C14.0955 4.02259 14.8653 4.91497 15.3328 5.96968C15.8004 7.02439 15.9447 8.19406 15.7475 9.33078C15.5503 10.4675 15.0205 11.5202 14.225 12.3558Z" fill="#9098B1"/>
</g>
<defs>
<clipPath id="clip0_1381_1110">
<rect width="20" height="20" fill="white"/>
</clipPath>
</defs>
</svg>
