<svg width="16" height="16" viewBox="0 0 16 16" fill="none" xmlns="http://www.w3.org/2000/svg">
<path d="M4.53967 12.5033H11.4554C12.5453 12.5033 13.1128 11.9408 13.1128 10.8661V4.7539C13.1128 3.67912 12.5453 3.11662 11.4554 3.11662H4.53967C3.45485 3.11662 2.88733 3.6741 2.88733 4.7539V10.8661C2.88733 11.9408 3.45485 12.5033 4.53967 12.5033ZM4.53465 11.5039C4.1178 11.5039 3.88677 11.2879 3.88677 10.846V6.22544C3.88677 5.78348 4.1178 5.56752 4.53465 5.56752H11.4604C11.8773 5.56752 12.1083 5.78348 12.1083 6.22544V10.846C12.1083 11.2879 11.8773 11.5039 11.4604 11.5039H4.53465ZM7.03074 7.30022H7.32706C7.50786 7.30022 7.56813 7.24497 7.56813 7.06919V6.77287C7.56813 6.59207 7.50786 6.53682 7.32706 6.53682H7.03074C6.84994 6.53682 6.78967 6.59207 6.78967 6.77287V7.06919C6.78967 7.24497 6.84994 7.30022 7.03074 7.30022ZM8.67304 7.30022H8.96936C9.14514 7.30022 9.20541 7.24497 9.20541 7.06919V6.77287C9.20541 6.59207 9.14514 6.53682 8.96936 6.53682H8.67304C8.49224 6.53682 8.43197 6.59207 8.43197 6.77287V7.06919C8.43197 7.24497 8.49224 7.30022 8.67304 7.30022ZM10.3103 7.30022H10.6066C10.7874 7.30022 10.8477 7.24497 10.8477 7.06919V6.77287C10.8477 6.59207 10.7874 6.53682 10.6066 6.53682H10.3103C10.1345 6.53682 10.0743 6.59207 10.0743 6.77287V7.06919C10.0743 7.24497 10.1345 7.30022 10.3103 7.30022ZM5.39347 8.9174H5.68476C5.86557 8.9174 5.92583 8.86216 5.92583 8.68136V8.38504C5.92583 8.20926 5.86557 8.15401 5.68476 8.15401H5.39347C5.21266 8.15401 5.1524 8.20926 5.1524 8.38504V8.68136C5.1524 8.86216 5.21266 8.9174 5.39347 8.9174ZM7.03074 8.9174H7.32706C7.50786 8.9174 7.56813 8.86216 7.56813 8.68136V8.38504C7.56813 8.20926 7.50786 8.15401 7.32706 8.15401H7.03074C6.84994 8.15401 6.78967 8.20926 6.78967 8.38504V8.68136C6.78967 8.86216 6.84994 8.9174 7.03074 8.9174ZM8.67304 8.9174H8.96936C9.14514 8.9174 9.20541 8.86216 9.20541 8.68136V8.38504C9.20541 8.20926 9.14514 8.15401 8.96936 8.15401H8.67304C8.49224 8.15401 8.43197 8.20926 8.43197 8.38504V8.68136C8.43197 8.86216 8.49224 8.9174 8.67304 8.9174ZM10.3103 8.9174H10.6066C10.7874 8.9174 10.8477 8.86216 10.8477 8.68136V8.38504C10.8477 8.20926 10.7874 8.15401 10.6066 8.15401H10.3103C10.1345 8.15401 10.0743 8.20926 10.0743 8.38504V8.68136C10.0743 8.86216 10.1345 8.9174 10.3103 8.9174ZM5.39347 10.5296H5.68476C5.86557 10.5296 5.92583 10.4743 5.92583 10.2985V10.0022C5.92583 9.82142 5.86557 9.76618 5.68476 9.76618H5.39347C5.21266 9.76618 5.1524 9.82142 5.1524 10.0022V10.2985C5.1524 10.4743 5.21266 10.5296 5.39347 10.5296ZM7.03074 10.5296H7.32706C7.50786 10.5296 7.56813 10.4743 7.56813 10.2985V10.0022C7.56813 9.82142 7.50786 9.76618 7.32706 9.76618H7.03074C6.84994 9.76618 6.78967 9.82142 6.78967 10.0022V10.2985C6.78967 10.4743 6.84994 10.5296 7.03074 10.5296ZM8.67304 10.5296H8.96936C9.14514 10.5296 9.20541 10.4743 9.20541 10.2985V10.0022C9.20541 9.82142 9.14514 9.76618 8.96936 9.76618H8.67304C8.49224 9.76618 8.43197 9.82142 8.43197 10.0022V10.2985C8.43197 10.4743 8.49224 10.5296 8.67304 10.5296Z" fill="#003459"/>
</svg>
