<svg width="16" height="16" viewBox="0 0 16 16" fill="none" xmlns="http://www.w3.org/2000/svg">
<path d="M3.70593 12.1618H12.2891C13.3789 12.1618 13.9414 11.5943 13.9414 10.5195V5.09542C13.9414 4.02065 13.3789 3.45815 12.2891 3.45815H3.70593C2.62111 3.45815 2.05359 4.02065 2.05359 5.09542V10.5195C2.05359 11.5993 2.62111 12.1618 3.70593 12.1618ZM3.77122 4.46261H7.66854V6.02455C7.35716 5.4269 6.82479 5.06027 6.22714 5.06027C5.51899 5.06027 4.99165 5.59263 4.99165 6.30078C4.99165 6.89844 5.38841 7.39062 5.96095 7.67187H3.05303V5.18582C3.05303 4.70368 3.30917 4.46261 3.77122 4.46261ZM10.0391 7.67187C10.6116 7.39062 11.0034 6.89844 11.0034 6.30078C11.0034 5.59263 10.476 5.06027 9.76787 5.06027C9.17022 5.06027 8.64287 5.4269 8.32647 6.02455V4.46261H12.2238C12.6858 4.46261 12.942 4.70368 12.942 5.18582V7.67187H10.0391ZM7.44756 7.6116C6.52848 7.6116 5.74499 6.97377 5.74499 6.38114C5.74499 6.0346 5.95593 5.81864 6.29243 5.81864C6.98049 5.81864 7.58316 6.5971 7.58316 7.48102V7.6116H7.44756ZM8.54745 7.6116H8.41185V7.48102C8.41185 6.5971 9.01955 5.81864 9.70258 5.81864C10.0391 5.81864 10.255 6.0346 10.255 6.38114C10.255 6.97377 9.47156 7.6116 8.54745 7.6116ZM12.2238 11.1574H8.32647V8.68136H8.36162C8.6931 9.67076 9.80805 10.4944 10.5514 10.615C10.8678 10.6602 11.0536 10.4291 11.0536 10.1931C11.0536 9.94196 10.8979 9.77623 10.6217 9.73605C9.97379 9.65067 9.09991 8.8471 8.81866 8.27957H12.942V10.4341C12.942 10.9163 12.6858 11.1574 12.2238 11.1574ZM3.77122 11.1574C3.30917 11.1574 3.05303 10.9163 3.05303 10.4341V8.27957H7.18138C6.90013 8.8471 6.02122 9.65067 5.37334 9.73605C5.09712 9.77623 4.94645 9.94196 4.94645 10.1931C4.94645 10.4291 5.13227 10.6602 5.44366 10.615C6.18696 10.4944 7.30694 9.67076 7.63339 8.68136H7.66854V11.1574H3.77122Z" fill="#003459"/>
</svg>
