<svg width="16" height="16" viewBox="0 0 16 16" fill="none" xmlns="http://www.w3.org/2000/svg">
<path d="M8.00003 11.4386C8.22102 11.4386 8.52738 10.5999 8.52738 9.24386V6.0798C9.37615 5.84877 9.9939 5.07031 9.9939 4.15123C9.9939 3.04632 9.10997 2.14732 8.00003 2.14732C6.89512 2.14732 6.0112 3.04632 6.0112 4.15123C6.0112 5.06529 6.62392 5.84375 7.47269 6.07478V9.24386C7.47269 10.5949 7.78408 11.4386 8.00003 11.4386ZM7.43753 4.26172C7.07593 4.26172 6.7545 3.94531 6.7545 3.57366C6.7545 3.20703 7.07593 2.89565 7.43753 2.89565C7.81421 2.89565 8.12057 3.20703 8.12057 3.57366C8.12057 3.94531 7.81421 4.26172 7.43753 4.26172ZM8.00003 13.4174C11.1942 13.4174 13.1077 12.3426 13.1077 11.1071C13.1077 9.75614 11.0385 8.88226 9.3862 8.81194V9.71094C10.5112 9.76116 11.9626 10.2785 11.9626 11.0067C11.9626 11.8705 10.2952 12.4682 8.00003 12.4682C5.70483 12.4682 4.04245 11.8756 4.04245 11.0067C4.04245 10.2785 5.4939 9.76116 6.61387 9.71094V8.81194C4.96153 8.88226 2.89233 9.75614 2.89233 11.1071C2.89233 12.3426 4.80584 13.4174 8.00003 13.4174Z" fill="#003459"/>
</svg>
