<svg width="16" height="16" viewBox="0 0 16 16" fill="none" xmlns="http://www.w3.org/2000/svg">
<path d="M10.6217 7.85268C11.8371 7.85268 12.8215 6.78292 12.8215 5.46708C12.8215 4.17132 11.8421 3.13672 10.6217 3.13672C9.41635 3.13672 8.42193 4.18638 8.42193 5.47712C8.42695 6.78795 9.41132 7.85268 10.6217 7.85268ZM4.80083 7.96819C5.86054 7.96819 6.71434 7.02902 6.71434 5.86886C6.71434 4.73884 5.86054 3.82478 4.80083 3.82478C3.75117 3.82478 2.88231 4.75391 2.88733 5.87388C2.88733 7.03404 3.74615 7.96819 4.80083 7.96819ZM10.6217 6.97377C9.92862 6.97377 9.34101 6.32087 9.34101 5.4721C9.34101 4.65346 9.9236 4.01562 10.6217 4.01562C11.3248 4.01562 11.9024 4.64342 11.9024 5.46708C11.9024 6.31083 11.3198 6.97377 10.6217 6.97377ZM4.80083 7.09933C4.23331 7.09933 3.75117 6.55692 3.75117 5.87388C3.75117 5.22098 4.22829 4.68862 4.80083 4.68862C5.38342 4.68862 5.85552 5.21094 5.85552 5.86886C5.85552 6.55692 5.37338 7.09933 4.80083 7.09933ZM2.03856 12.5837H5.9409C5.66467 12.423 5.47885 12.0564 5.514 11.7249H1.99336C1.89793 11.7249 1.85775 11.6797 1.85775 11.5943C1.85775 10.4442 3.20374 9.34933 4.79581 9.34933C5.35831 9.34933 5.92081 9.48995 6.35273 9.73103C6.52349 9.48493 6.73443 9.274 7.01065 9.09319C6.37282 8.70145 5.57929 8.49051 4.79581 8.49051C2.67137 8.49051 0.953735 10.0073 0.953735 11.6747C0.953735 12.2773 1.31534 12.5837 2.03856 12.5837ZM7.4928 12.5837H13.7506C14.6195 12.5837 15.0413 12.3075 15.0413 11.7148C15.0413 10.3337 13.3137 8.49554 10.6217 8.49554C7.92974 8.49554 6.20206 10.3337 6.20206 11.7148C6.20206 12.3075 6.62394 12.5837 7.4928 12.5837ZM7.33208 11.7048C7.21657 11.7048 7.17137 11.6646 7.17137 11.5742C7.17137 10.8058 8.41188 9.37444 10.6217 9.37444C12.8315 9.37444 14.072 10.8058 14.072 11.5742C14.072 11.6646 14.0268 11.7048 13.9063 11.7048H7.33208Z" fill="#003459"/>
</svg>
