<svg width="16" height="16" viewBox="0 0 16 16" fill="none" xmlns="http://www.w3.org/2000/svg">
<path fill-rule="evenodd" clip-rule="evenodd" d="M8 1.23077C4.26146 1.23077 1.23077 4.26146 1.23077 8C1.23077 11.7385 4.26146 14.7692 8 14.7692C11.7385 14.7692 14.7692 11.7385 14.7692 8C14.7692 4.26146 11.7385 1.23077 8 1.23077ZM0 8C0 3.58172 3.58172 0 8 0C12.4183 0 16 3.58172 16 8C16 12.4183 12.4183 16 8 16C3.58172 16 0 12.4183 0 8ZM8.38537 4.28281C8.62569 4.04248 9.01533 4.04248 9.25566 4.28281L12.5377 7.56486C12.778 7.80518 12.778 8.19482 12.5377 8.43514L9.25566 11.7172C9.01533 11.9575 8.62569 11.9575 8.38537 11.7172C8.14505 11.4769 8.14505 11.0872 8.38537 10.8469L10.6169 8.61539H3.89744C3.55757 8.61539 3.28205 8.33987 3.28205 8C3.28205 7.66013 3.55757 7.38462 3.89744 7.38462H10.6169L8.38537 5.15309C8.14505 4.91277 8.14505 4.52313 8.38537 4.28281Z" fill="white"/>
</svg>
